{"title":"Season Of The Witch 2011 480 BRRip Xvid  AC3 - PRESTiGE","uid":6246141,"size":1934673662,"categoryP":"video","categoryS":"movies","magnet":"?xt=urn:btih:88c1163aedcc99f0327a4c430c63bb3e7bfc8775&amp;dn=Season+Of+The+Witch+2011+480+BRRip+Xvid++AC3+-+PRESTiGE&amp;tr=udp%3A%2F%2Ftracker.openbittorrent.com%3A80&amp;tr=udp%3A%2F%2Fopen.demonii.com%3A1337&amp;tr=udp%3A%2F%2Ftracker.coppersurfer.tk%3A6969&amp;tr=udp%3A%2F%2Fexodus.desync.com%3A6969","seeders":0,"leechers":1,"uploader":"sceneline","files":132,"time":1300237803,"description":"-\nhttp:// www . torrentkit. com        \nhttp:// www .torrentkit. com       the fast  and The Hottest Private Tracker on the net\n\nPlease Seed back to make the speed Faster!!!\n\nand don't forget to visit      ...... www .torrentkit .com..........\n-[align=center][IMG]http://img121.imageshack.us/img121/3377/seasonofthewitchcover.jpg[/IMG]\n\n** ** ** ** ** ** ** ** ** \n\nIMDB........ http://www.imdb.com/title/tt0479997/\n\n** ** ** ** ** ** ** ** ** \n\n[b]PLOT[/b]\n\n14th-century knights transport a suspected witch to a monastery, where monks deduce her powers could be the source of the Black Plague. \n\n** ** ** ** ** ** ** ** ** \n\n[b]AVI Information[/b]\n\nComplete name : Season Of The Witch 2011 480 BRRip Xvid AC3 - PRESTiGE.avi \nFormat : AVI \nFormat/Info : Audio Video Interleave \nFormat profile : OpenDML \nFormat settings : rec \nFile size : 1.78 GiB \nDuration : 1h 34mn \nOverall bit rate : 2 698 Kbps \nSource: \nEncoder: Twisted\n\n[b]Video Stream[/b]\n\nID : 0 \nFormat : MPEG-4 Visual \nFormat profile : Advanced Simple@L5 \nFormat settings, BVOP : 2 \nFormat settings, QPel : No \nFormat settings, GMC : No warppoints \nFormat settings, Matrix : Default (MPEG) \nCodec ID : XVID \nCodec ID/Hint : XviD \nDuration : 1h 34mn \nBit rate : 2 244 Kbps \nWidth : 720 pixels \nHeight : 400 pixels \nDisplay aspect ratio : 16:9 \nFrame rate : 23.976 fps \nColor space : YUV \nChroma subsampling : 4:2:0 \nBit depth : 8 bits \nScan type : Progressive \nCompression mode : Lossy \nBits/(Pixel*Frame) : 0.325 \nStream size : 1.48 GiB (83%) \nWriting library : XviD 1.2.1 (UTC 2008-12-04) \n\n\n[b]Audio Stream[/b]\n\nID : 1 \nFormat : AC-3 \nFormat/Info : Audio Coding 3 \nMode extension : CM (complete main) \nCodec ID : 2000 \nDuration : 1h 34mn \nBit rate mode : Constant \nBit rate : 448 Kbps \nChannel(s) : 6 channels \nChannel positions : Front: L C R, Side: L R, LFE \nSampling rate : 48.0 KHz \nBit depth : 16 bits \nCompression mode : Lossy \nStream size : 303 MiB (17%) \nAlignment : Aligned on interleaves \nInterleave, duration : 64 ms (1.53 video frames) \nInterleave, preload duration : 192 ms \nTitle : T3_Audio - English \n\n\n** ** ** ** ** ** ** ** ** \n\n[b]Screens[/b]\n\n[IMG]http://img705.imageshack.us/img705/4160/pic11x.png[/IMG]\n[IMG]http://img607.imageshack.us/img607/3002/pic12w.png[/IMG]\n[IMG]http://img535.imageshack.us/img535/1208/pic13s.png[/IMG]\n[IMG]http://img813.imageshack.us/img813/8282/pic14u.png[/IMG]\n[IMG]http://img714.imageshack.us/img714/6629/pic15w.png[/IMG]\n[IMG]http://img199.imageshack.us/img199/1583/pic16w.png[/IMG]\n[IMG]http://img545.imageshack.us/img545/7207/pic17h.png[/IMG]\n[IMG]http://img215.imageshack.us/img215/3210/pic18p.png[/IMG]\n\n** ** ** ** ** ** ** ** **\n\nNote\n\nPRESTiGE - IS LOOKING FOR?: CAMMER'S, AUDIO SUPPLIERS, SYNCER'S, RETAIL SUPPLIER'S, SILVER'S, SCREENER'S, LINE CAPPER'S\n\nENCODER'S - ANYTHING AT ALL EMAIL US AT..... &lt;a class=&quot;__cf_email__&quot; href=&quot;/cdn-cgi/l/email-protection&quot; data-cfemail=&quot;3e4e4c5b4d4a57595b7e4a49574d4a5b5a4a514c4c5b504a4d105d5153&quot;&gt;[email&amp;#160;protected]&lt;/a&gt;&lt;script cf-hash='f9e31' type=&quot;text/javascript&quot;&gt;\n/* &lt;![CDATA[ */!function(){try{var t=&quot;currentScript&quot;in document?document.currentScript:function(){for(var t=document.getElementsByTagName(&quot;script&quot;),e=t.length;e--;)if(t[e].getAttribute(&quot;cf-hash&quot;))return t[e]}();if(t&amp;&amp;t.previousSibling){var e,r,n,i,c=t.previousSibling,a=c.getAttribute(&quot;data-cfemail&quot;);if(a){for(e=&quot;&quot;,r=parseInt(a.substr(0,2),16),n=2;a.length-n;n+=2)i=parseInt(a.substr(n,2),16)^r,e+=String.fromCharCode(i);e=document.createTextNode(e),c.parentNode.replaceChild(e,c)}}}catch(u){}}();/* ]]&gt; */&lt;/script&gt;\n\n** ** ** ** ** ** ** ** **\n\nGreets Are Flying Out To:\n\n[b]BmB,HiTM4N,BIGGUY,Demedic,DiLLoN,Imagine,CTFX,Jammo\nEncoders Past And Present[/b]\n\n** ** ** ** ** ** ** ** ** \n\nPRESTiGE is the level of respect at which one is regarded by others....RIzE Above Or Sink Below\n\n[IMG]http://leetleech.org/images/83508160282003703104.png[/IMG][/align]","torrent":{"xt":"urn:btih:88c1163aedcc99f0327a4c430c63bb3e7bfc8775","amp;dn":"Season+Of+The+Witch+2011+480+BRRip+Xvid++AC3+-+PRESTiGE","amp;tr":["udp%3A%2F%2Ftracker.openbittorrent.com%3A80","udp%3A%2F%2Fopen.demonii.com%3A1337","udp%3A%2F%2Ftracker.coppersurfer.tk%3A6969","udp%3A%2F%2Fexodus.desync.com%3A6969"],"infoHash":"88c1163aedcc99f0327a4c430c63bb3e7bfc8775","infoHashBuffer":{"type":"Buffer","data":[136,193,22,58,237,204,153,240,50,122,76,67,12,99,187,62,123,252,135,117]},"announce":[],"urlList":[]}}